<?xml version="1.0" standalone="no"?>
<!DOCTYPE svg PUBLIC "-//W3C//DTD SVG 20010904//EN"
 "http://www.w3.org/TR/2001/REC-SVG-20010904/DTD/svg10.dtd">
<svg version="1.0" xmlns="http://www.w3.org/2000/svg"
 width="200.000000pt" height="200.000000pt" viewBox="0 0 200.000000 200.000000"
 preserveAspectRatio="xMidYMid meet">
<metadata>
Created by potrace 1.14, written by Peter Selinger 2001-2017
</metadata>
<g transform="translate(0.000000,200.000000) scale(0.100000,-0.100000)"
fill="#000000" stroke="none">
<path d="M945 1690 c-22 -24 -14 -36 14 -21 14 8 27 8 45 -1 15 -6 29 -8 33
-5 11 11 -29 47 -52 47 -12 0 -30 -9 -40 -20z"/>
<path d="M1088 1683 c-29 -7 -21 -17 31 -36 61 -21 71 -21 71 1 0 36 -42 51
-102 35z"/>
<path d="M651 1644 c-20 -25 -28 -54 -16 -54 3 0 17 12 30 28 l23 27 24 -22
c29 -27 57 -29 99 -7 17 8 47 14 67 12 27 -2 37 1 37 11 0 27 -31 36 -77 22
-76 -22 -93 -24 -107 -7 -20 24 -57 19 -80 -10z"/>
<path d="M1505 1653 c-48 -6 -135 -33 -135 -41 0 -4 35 -4 78 0 42 3 134 7
203 7 118 1 129 -1 180 -26 49 -25 55 -32 61 -68 19 -112 1 -209 -59 -308 -19
-31 -33 -64 -31 -73 6 -30 64 31 100 104 30 59 33 77 36 167 5 145 -6 171 -87
213 -63 31 -66 32 -190 31 -69 -1 -139 -4 -156 -6z"/>
<path d="M280 1570 c-102 -10 -152 -25 -185 -56 -28 -25 -28 -27 -22 -118 3
-51 10 -110 17 -132 17 -56 62 -118 88 -122 28 -4 28 1 -6 51 -40 58 -50 94
-58 196 -6 86 -6 87 20 104 28 19 101 31 306 51 119 11 132 14 107 24 -31 13
-148 14 -267 2z"/>
<path d="M1686 1513 c-4 -14 -18 -25 -34 -29 -48 -10 -52 -13 -52 -34 0 -13
-7 -20 -19 -20 -25 0 -38 -20 -20 -31 30 -19 60 -10 72 21 6 17 17 30 23 30 7
0 22 8 35 19 20 16 21 22 13 42 l-11 24 -7 -22z"/>
<path d="M200 1401 c0 -12 28 -26 71 -35 22 -5 25 -10 22 -31 -6 -29 14 -41
52 -31 29 8 34 26 6 26 -14 0 -21 8 -23 27 -2 23 -9 29 -38 34 -19 3 -47 10
-62 14 -19 5 -28 3 -28 -4z"/>
<path d="M1110 1172 c-23 -11 -36 -25 -38 -41 -2 -14 -10 -34 -17 -45 -8 -12
-17 -40 -21 -63 l-7 -43 -47 0 c-26 0 -61 -3 -78 -6 -28 -6 -31 -3 -37 27 -12
53 -51 106 -100 135 -40 23 -54 26 -118 22 -139 -7 -212 -69 -210 -180 1 -37
-3 -49 -17 -53 -39 -12 -24 -65 19 -65 9 0 33 -16 52 -36 18 -20 46 -42 61
-50 33 -17 136 -18 191 -2 59 18 115 74 123 125 6 40 6 40 58 46 77 8 104 -1
123 -37 8 -17 24 -40 34 -52 l20 -21 -47 7 c-70 11 -165 -12 -186 -44 -14 -20
-8 -63 10 -79 10 -9 36 -23 58 -30 27 -10 40 -21 42 -35 5 -30 22 -28 22 2 0
24 2 24 33 15 17 -6 38 -13 45 -15 22 -7 -5 -42 -45 -59 -45 -19 -66 -19 -103
0 -19 10 -30 11 -30 5 0 -22 60 -37 109 -29 43 8 61 22 111 85 4 6 26 14 47
18 50 9 111 35 117 51 2 7 -1 21 -9 31 -12 17 -15 17 -51 -7 -38 -25 -77 -40
-139 -54 l-30 -6 34 31 c29 27 33 36 28 69 l-5 38 37 -13 c48 -17 134 -17 174
0 43 18 92 72 112 121 14 37 14 45 0 85 -27 77 -63 129 -105 150 -51 26 -169
27 -220 2z m213 -34 c23 -12 77 -96 77 -120 0 -9 -10 -23 -22 -29 l-21 -11 24
-18 c22 -17 22 -20 9 -45 -8 -15 -30 -39 -49 -54 -29 -22 -45 -26 -100 -26
-113 0 -163 40 -176 142 -8 60 19 133 57 154 48 27 156 30 201 7z m-613 -29
c34 -7 55 -21 88 -57 40 -44 42 -49 42 -108 0 -47 -5 -67 -21 -88 -36 -45 -89
-66 -172 -66 -69 0 -77 2 -120 35 -39 30 -46 41 -52 82 -13 100 22 170 101
198 47 17 75 18 134 4z"/>
<path d="M1136 1014 c-9 -8 -16 -28 -16 -44 0 -22 8 -33 36 -49 42 -25 72 -27
102 -5 28 19 29 67 2 94 -25 25 -101 28 -124 4z"/>
<path d="M649 960 c-38 -37 -37 -79 2 -97 51 -25 159 26 159 74 0 29 -39 53
-86 53 -37 0 -51 -5 -75 -30z"/>
<path d="M99 1071 c-19 -16 -22 -23 -13 -38 13 -22 92 -65 105 -57 18 11 9 41
-16 52 -30 14 -32 29 -5 34 35 5 27 23 -11 26 -24 2 -43 -3 -60 -17z"/>
<path d="M1830 1025 c0 -3 8 -17 17 -31 16 -25 16 -27 0 -36 -23 -12 -21 -34
3 -55 29 -25 25 -39 -20 -69 -40 -27 -57 -60 -46 -89 8 -21 30 -19 51 5 27 30
63 126 58 155 -3 15 -1 25 6 25 22 0 11 46 -16 66 -39 29 -53 36 -53 29z"/>
<path d="M113 795 c-31 -31 -41 -58 -20 -56 4 1 17 1 30 1 20 1 67 56 67 81 0
21 -45 6 -77 -26z"/>
<path d="M702 738 c-20 -20 -15 -48 9 -48 12 0 34 -11 51 -25 24 -20 40 -25
87 -25 37 0 64 6 77 16 18 14 15 15 -36 10 -73 -7 -124 11 -129 44 -5 38 -35
52 -59 28z"/>
<path d="M117 663 c-18 -17 -6 -70 21 -96 38 -37 53 -34 17 3 -20 21 -29 41
-29 65 -1 19 -1 35 -2 35 0 0 -4 -3 -7 -7z"/>
<path d="M1785 616 c-14 -19 -29 -51 -32 -71 -5 -29 -14 -42 -45 -61 -44 -28
-57 -52 -37 -65 41 -28 127 22 155 88 21 50 17 143 -7 143 -4 0 -20 -15 -34
-34z"/>
<path d="M190 505 c0 -3 9 -23 20 -44 15 -31 29 -42 66 -55 88 -30 80 -2 -18
64 -61 41 -68 44 -68 35z"/>
<path d="M380 385 c7 -8 18 -15 24 -15 7 0 22 -13 34 -30 18 -24 30 -30 62
-30 21 0 42 5 45 10 4 6 28 7 61 4 36 -5 54 -3 54 4 0 17 -37 24 -90 17 -42
-6 -57 -2 -112 24 -70 35 -98 40 -78 16z"/>
<path d="M1563 378 c-18 -13 -33 -26 -33 -30 0 -10 32 -10 46 0 10 6 30 52 22
52 -2 0 -18 -10 -35 -22z"/>
<path d="M1403 373 c-24 -2 -43 -8 -43 -12 0 -14 81 -23 96 -10 13 11 10 31
-4 27 -4 -1 -26 -3 -49 -5z"/>
<path d="M820 342 c0 -5 9 -17 20 -27 17 -15 22 -16 36 -4 14 12 14 14 -2 26
-20 15 -54 17 -54 5z"/>
</g>
</svg>
